<svg version="1.1" id="Layer_1" xmlns="http://www.w3.org/2000/svg" xmlns:xlink="http://www.w3.org/1999/xlink" x="0px" y="0px"
	 width="93px" height="93px" viewBox="0 0 93 93" style="enable-background:new 0 0 93 93;" xml:space="preserve">
<style type="text/css">
<![CDATA[
	.st0{fill:none;stroke:#262625;stroke-width:2;stroke-linejoin:round;stroke-miterlimit:10;}
	.st1{fill:#262625;}
	.st2{fill:none;stroke:#262625;stroke-width:2;stroke-miterlimit:10;}
]]>
</style>
<g>
	<g>
		<path class="st1" d="M46.5,3C70.525,3,90,22.475,90,46.5C90,70.524,70.525,90,46.5,90C22.476,90,3,70.524,3,46.5
			C3,22.475,22.476,3,46.5,3 M46.5,0C20.86,0,0,20.859,0,46.5S20.86,93,46.5,93C72.141,93,93,72.14,93,46.5S72.141,0,46.5,0L46.5,0z
			"/>
	</g>
	<g>
		<circle class="st2" cx="39.492" cy="61.096" r="17.883"/>
		<path class="st2" d="M29.101,61.051c0,0-0.16-0.286-0.36-0.784c-0.108-0.229-0.21-0.586-0.28-1.011
			c-0.038-0.213-0.079-0.439-0.122-0.68c-0.019-0.229-0.039-0.473-0.06-0.726c-0.045-0.511,0.001-1.067,0.054-1.665
			c0.092-0.592,0.197-1.229,0.427-1.87c0.206-0.646,0.508-1.303,0.886-1.942c0.396-0.633,0.846-1.263,1.414-1.81
			c0.535-0.57,1.192-1.037,1.844-1.452c0.682-0.379,1.368-0.716,2.073-0.897c0.689-0.249,1.375-0.285,2.009-0.369
			c0.631-0.03,1.219,0.014,1.75,0.054c0.52,0.095,0.986,0.201,1.39,0.312c0.406,0.1,0.728,0.284,1,0.394
			c0.538,0.244,0.823,0.426,0.823,0.426c0.854,0.542,1.105,1.673,0.564,2.525c-0.199,0.313-0.478,0.546-0.793,0.688l-0.289,0.131
			c0,0-0.272,0.122-0.71,0.266c-0.216,0.076-0.484,0.139-0.762,0.25c-0.279,0.11-0.583,0.221-0.904,0.317
			c-0.301,0.148-0.625,0.269-0.94,0.402c-0.29,0.182-0.626,0.28-0.895,0.479c-0.136,0.098-0.295,0.154-0.427,0.251
			c-0.131,0.1-0.259,0.2-0.402,0.277c-0.246,0.218-0.528,0.383-0.76,0.634c-0.271,0.202-0.482,0.489-0.747,0.735
			c-0.114,0.145-0.229,0.286-0.363,0.419c-0.124,0.143-0.217,0.31-0.347,0.453c-0.244,0.297-0.451,0.635-0.676,0.949
			c-0.2,0.331-0.434,0.644-0.605,0.966c-0.195,0.314-0.375,0.604-0.533,0.86c-0.149,0.254-0.32,0.489-0.429,0.752
			c-0.237,0.481-0.417,0.755-0.417,0.755c-0.428,0.652-1.303,0.835-1.955,0.407C29.365,61.417,29.208,61.242,29.101,61.051z"/>
		<path class="st2" d="M46,40H33v-7.744C33,30.655,34.507,29,36.108,29h6.767C44.477,29,46,30.655,46,32.256V40z"/>
		<polygon class="st0" points="46,18 43.161,18 38.459,13.659 32.307,19.992 38.459,25.923 43.161,21 46,21 		"/>
		<path class="st2" d="M71,23.233C71,26.971,67.97,30,64.232,30h-6.465C54.03,30,51,26.971,51,23.233v-0.467
			C51,19.029,54.03,16,57.768,16h6.465C67.97,16,71,19.029,71,22.767V23.233z"/>
	</g>
</g>
</svg>
