<svg version="1.1" id="Layer_1" xmlns="http://www.w3.org/2000/svg" xmlns:xlink="http://www.w3.org/1999/xlink" x="0px" y="0px"
	 width="93px" height="93px" viewBox="0 0 93 93" style="enable-background:new 0 0 93 93;" xml:space="preserve">
<style type="text/css">
<![CDATA[
	.st0{fill:none;stroke:#262625;stroke-width:2;stroke-linejoin:round;stroke-miterlimit:10;}
	.st1{fill:#262625;}
	.st2{fill:none;stroke:#262625;stroke-width:2;stroke-miterlimit:10;}
]]>
</style>
<g>
	<g>
		<path class="st1" d="M46.5,3C70.525,3,90,22.475,90,46.5C90,70.524,70.525,90,46.5,90C22.475,90,3,70.524,3,46.5
			C3,22.475,22.475,3,46.5,3 M46.5,0C20.86,0,0,20.859,0,46.5S20.86,93,46.5,93C72.141,93,93,72.14,93,46.5S72.141,0,46.5,0L46.5,0z
			"/>
	</g>
	<g>
		
			<ellipse transform="matrix(0.998 0.0625 -0.0625 0.998 3.6893 -1.5153)" class="st2" cx="26.081" cy="58.25" rx="3.322" ry="5.365"/>
		<path class="st0" d="M27.235,67.085c-0.266,6.628,3.961,8.432,11.165,8.658c8.116,0.257,11.278-8.771,6.493-12.188
			c-4.785-3.417-1.754-3.841,0.229-4.329c10.732-2.646,23.125-33.152,23.125-33.152S37.74,38.467,35.094,49.199
			c-0.488,1.982-0.911,5.013-4.329,0.229c-3.417-4.785-12.445-1.623-12.189,6.494C18.804,63.124,20.607,67.351,27.235,67.085z"/>
		
			<ellipse transform="matrix(-0.0622 -0.9981 0.9981 -0.0622 -29.7928 108.4867)" class="st2" cx="36.07" cy="68.24" rx="3.322" ry="5.366"/>
		<line class="st0" x1="51.045" y1="43.276" x2="27.121" y2="67.199"/>
		<line class="st0" x1="50" y1="36" x2="50" y2="44"/>
		<line class="st0" x1="50.305" y1="43.904" x2="59.28" y2="44.146"/>
		<circle class="st1" cx="56.285" cy="38.035" r="1.288"/>
	</g>
</g>
</svg>
